<mxfile host="app.diagrams.net" modified="2023-03-20T14:36:17.182Z" agent="5.0 (Macintosh; Intel Mac OS X 10_15_7) AppleWebKit/537.36 (KHTML, like Gecko) Chrome/111.0.0.0 Safari/537.36 Edg/111.0.1661.44" etag="glKoDDoPZAZM6ZcvNNtV" version="21.0.6" type="github">
  <diagram name="第 1 页" id="HMxxk83I6BtxBIbFpMZa">
    <mxGraphModel dx="1167" dy="660" grid="0" gridSize="10" guides="1" tooltips="1" connect="1" arrows="1" fold="1" page="1" pageScale="1" pageWidth="827" pageHeight="1169" math="0" shadow="0">
      <root>
        <mxCell id="0" />
        <mxCell id="1" parent="0" />
        <mxCell id="R6-2TD6jUbQ1TESHilik-80" value="" style="rounded=1;whiteSpace=wrap;html=1;sketch=1;curveFitting=1;jiggle=2;shadow=1;glass=0;gradientColor=none;gradientDirection=north;fillStyle=solid;" vertex="1" parent="1">
          <mxGeometry x="7" y="32" width="714" height="504" as="geometry" />
        </mxCell>
        <mxCell id="R6-2TD6jUbQ1TESHilik-73" value="" style="rounded=1;whiteSpace=wrap;html=1;fillColor=#fff2cc;strokeColor=#d6b656;" vertex="1" parent="1">
          <mxGeometry x="317.39" y="390" width="80" height="100" as="geometry" />
        </mxCell>
        <mxCell id="R6-2TD6jUbQ1TESHilik-17" value="" style="rounded=1;whiteSpace=wrap;html=1;dashed=1;fillColor=#f8cecc;strokeColor=#b85450;" vertex="1" parent="1">
          <mxGeometry x="50" y="60" width="110" height="360" as="geometry" />
        </mxCell>
        <mxCell id="R6-2TD6jUbQ1TESHilik-1" value="" style="rounded=1;whiteSpace=wrap;html=1;fillColor=#fff2cc;strokeColor=#d6b656;" vertex="1" parent="1">
          <mxGeometry x="200" y="220" width="80" height="100" as="geometry" />
        </mxCell>
        <mxCell id="R6-2TD6jUbQ1TESHilik-9" value="节点" style="ellipse;whiteSpace=wrap;html=1;" vertex="1" parent="1">
          <mxGeometry x="82.5" y="120" width="50" height="30" as="geometry" />
        </mxCell>
        <mxCell id="R6-2TD6jUbQ1TESHilik-10" value="节点" style="ellipse;whiteSpace=wrap;html=1;" vertex="1" parent="1">
          <mxGeometry x="82.5" y="170" width="50" height="30" as="geometry" />
        </mxCell>
        <mxCell id="R6-2TD6jUbQ1TESHilik-12" value="节点" style="ellipse;whiteSpace=wrap;html=1;" vertex="1" parent="1">
          <mxGeometry x="80" y="290" width="50" height="30" as="geometry" />
        </mxCell>
        <mxCell id="R6-2TD6jUbQ1TESHilik-13" value="节点" style="ellipse;whiteSpace=wrap;html=1;" vertex="1" parent="1">
          <mxGeometry x="80" y="340" width="50" height="30" as="geometry" />
        </mxCell>
        <mxCell id="R6-2TD6jUbQ1TESHilik-18" value="" style="endArrow=none;html=1;rounded=0;exitX=1;exitY=0.5;exitDx=0;exitDy=0;entryX=0;entryY=0.5;entryDx=0;entryDy=0;" edge="1" parent="1" source="R6-2TD6jUbQ1TESHilik-9" target="R6-2TD6jUbQ1TESHilik-1">
          <mxGeometry width="50" height="50" relative="1" as="geometry">
            <mxPoint x="180" y="200" as="sourcePoint" />
            <mxPoint x="230" y="150" as="targetPoint" />
          </mxGeometry>
        </mxCell>
        <mxCell id="R6-2TD6jUbQ1TESHilik-19" value="" style="endArrow=none;html=1;rounded=0;exitX=1;exitY=0.5;exitDx=0;exitDy=0;entryX=0;entryY=0.5;entryDx=0;entryDy=0;" edge="1" parent="1" source="R6-2TD6jUbQ1TESHilik-10" target="R6-2TD6jUbQ1TESHilik-1">
          <mxGeometry width="50" height="50" relative="1" as="geometry">
            <mxPoint x="120" y="165" as="sourcePoint" />
            <mxPoint x="210" y="260" as="targetPoint" />
          </mxGeometry>
        </mxCell>
        <mxCell id="R6-2TD6jUbQ1TESHilik-23" value="" style="rounded=1;whiteSpace=wrap;html=1;dashed=1;fillColor=#f8cecc;strokeColor=#b85450;" vertex="1" parent="1">
          <mxGeometry x="545" y="60" width="115" height="350" as="geometry" />
        </mxCell>
        <mxCell id="R6-2TD6jUbQ1TESHilik-21" value="内部网络" style="ellipse;shape=cloud;whiteSpace=wrap;html=1;" vertex="1" parent="1">
          <mxGeometry x="74.38" y="70" width="66.25" height="30" as="geometry" />
        </mxCell>
        <mxCell id="R6-2TD6jUbQ1TESHilik-24" value="节点" style="ellipse;whiteSpace=wrap;html=1;" vertex="1" parent="1">
          <mxGeometry x="577.5" y="120" width="50" height="30" as="geometry" />
        </mxCell>
        <mxCell id="R6-2TD6jUbQ1TESHilik-25" value="节点" style="ellipse;whiteSpace=wrap;html=1;" vertex="1" parent="1">
          <mxGeometry x="577.5" y="170" width="50" height="30" as="geometry" />
        </mxCell>
        <mxCell id="R6-2TD6jUbQ1TESHilik-27" value="节点" style="ellipse;whiteSpace=wrap;html=1;" vertex="1" parent="1">
          <mxGeometry x="579.38" y="275" width="50" height="30" as="geometry" />
        </mxCell>
        <mxCell id="R6-2TD6jUbQ1TESHilik-28" value="节点" style="ellipse;whiteSpace=wrap;html=1;" vertex="1" parent="1">
          <mxGeometry x="576.26" y="330" width="50" height="30" as="geometry" />
        </mxCell>
        <mxCell id="R6-2TD6jUbQ1TESHilik-29" value="内部网络" style="ellipse;shape=cloud;whiteSpace=wrap;html=1;" vertex="1" parent="1">
          <mxGeometry x="568.13" y="70" width="66.25" height="30" as="geometry" />
        </mxCell>
        <mxCell id="R6-2TD6jUbQ1TESHilik-30" value="" style="endArrow=none;html=1;rounded=0;exitX=0;exitY=0.5;exitDx=0;exitDy=0;entryX=1.013;entryY=0.44;entryDx=0;entryDy=0;entryPerimeter=0;" edge="1" parent="1" source="R6-2TD6jUbQ1TESHilik-24" target="R6-2TD6jUbQ1TESHilik-53">
          <mxGeometry width="50" height="50" relative="1" as="geometry">
            <mxPoint x="125" y="145" as="sourcePoint" />
            <mxPoint x="515" y="270" as="targetPoint" />
          </mxGeometry>
        </mxCell>
        <mxCell id="R6-2TD6jUbQ1TESHilik-31" value="" style="endArrow=none;html=1;rounded=0;exitX=0;exitY=0.5;exitDx=0;exitDy=0;entryX=1;entryY=0.5;entryDx=0;entryDy=0;" edge="1" parent="1" source="R6-2TD6jUbQ1TESHilik-25">
          <mxGeometry width="50" height="50" relative="1" as="geometry">
            <mxPoint x="628" y="145" as="sourcePoint" />
            <mxPoint x="515" y="270" as="targetPoint" />
          </mxGeometry>
        </mxCell>
        <mxCell id="R6-2TD6jUbQ1TESHilik-32" value="" style="rounded=1;whiteSpace=wrap;html=1;dashed=1;dashPattern=1 2;fillColor=#dae8fc;glass=0;strokeColor=#6c8ebf;" vertex="1" parent="1">
          <mxGeometry x="69.38" y="110" width="560" height="100" as="geometry" />
        </mxCell>
        <mxCell id="R6-2TD6jUbQ1TESHilik-37" value="群组&lt;br&gt;区块链共识&lt;br&gt;逻辑网络" style="ellipse;shape=cloud;whiteSpace=wrap;html=1;" vertex="1" parent="1">
          <mxGeometry x="289.38" y="120" width="120" height="70" as="geometry" />
        </mxCell>
        <mxCell id="R6-2TD6jUbQ1TESHilik-38" value="" style="endArrow=none;html=1;rounded=0;entryX=0;entryY=0.5;entryDx=0;entryDy=0;exitX=1;exitY=0.5;exitDx=0;exitDy=0;" edge="1" parent="1" source="R6-2TD6jUbQ1TESHilik-12" target="R6-2TD6jUbQ1TESHilik-1">
          <mxGeometry width="50" height="50" relative="1" as="geometry">
            <mxPoint x="143" y="195" as="sourcePoint" />
            <mxPoint x="210" y="260" as="targetPoint" />
          </mxGeometry>
        </mxCell>
        <mxCell id="R6-2TD6jUbQ1TESHilik-39" value="" style="endArrow=none;html=1;rounded=0;entryX=0;entryY=0.5;entryDx=0;entryDy=0;exitX=1;exitY=0.5;exitDx=0;exitDy=0;" edge="1" parent="1" source="R6-2TD6jUbQ1TESHilik-13" target="R6-2TD6jUbQ1TESHilik-1">
          <mxGeometry width="50" height="50" relative="1" as="geometry">
            <mxPoint x="143" y="275" as="sourcePoint" />
            <mxPoint x="210" y="260" as="targetPoint" />
          </mxGeometry>
        </mxCell>
        <mxCell id="R6-2TD6jUbQ1TESHilik-40" value="网关1" style="rounded=1;whiteSpace=wrap;html=1;" vertex="1" parent="1">
          <mxGeometry x="215" y="250" width="50" height="30" as="geometry" />
        </mxCell>
        <mxCell id="R6-2TD6jUbQ1TESHilik-45" value="网关0" style="rounded=1;whiteSpace=wrap;html=1;" vertex="1" parent="1">
          <mxGeometry x="210" y="265" width="50" height="30" as="geometry" />
        </mxCell>
        <mxCell id="R6-2TD6jUbQ1TESHilik-52" value="&lt;font style=&quot;font-size: 11px;&quot;&gt;网关集群&lt;/font&gt;" style="text;html=1;align=center;verticalAlign=middle;resizable=0;points=[];autosize=1;strokeColor=none;fillColor=none;" vertex="1" parent="1">
          <mxGeometry x="205" y="220" width="70" height="30" as="geometry" />
        </mxCell>
        <mxCell id="R6-2TD6jUbQ1TESHilik-53" value="" style="rounded=1;whiteSpace=wrap;html=1;fillColor=#fff2cc;strokeColor=#d6b656;" vertex="1" parent="1">
          <mxGeometry x="440" y="215" width="80" height="100" as="geometry" />
        </mxCell>
        <mxCell id="R6-2TD6jUbQ1TESHilik-54" value="网关1" style="rounded=1;whiteSpace=wrap;html=1;" vertex="1" parent="1">
          <mxGeometry x="455" y="245" width="50" height="30" as="geometry" />
        </mxCell>
        <mxCell id="R6-2TD6jUbQ1TESHilik-55" value="网关0" style="rounded=1;whiteSpace=wrap;html=1;" vertex="1" parent="1">
          <mxGeometry x="450" y="260" width="50" height="30" as="geometry" />
        </mxCell>
        <mxCell id="R6-2TD6jUbQ1TESHilik-56" value="&lt;font style=&quot;font-size: 11px;&quot;&gt;网关集群&lt;/font&gt;" style="text;html=1;align=center;verticalAlign=middle;resizable=0;points=[];autosize=1;strokeColor=none;fillColor=none;" vertex="1" parent="1">
          <mxGeometry x="445" y="215" width="70" height="30" as="geometry" />
        </mxCell>
        <mxCell id="R6-2TD6jUbQ1TESHilik-58" value="机构A" style="rounded=1;whiteSpace=wrap;html=1;strokeColor=default;dashed=1;" vertex="1" parent="1">
          <mxGeometry x="215" y="330" width="55.11" height="10" as="geometry" />
        </mxCell>
        <mxCell id="R6-2TD6jUbQ1TESHilik-63" value="机构B" style="rounded=1;whiteSpace=wrap;html=1;strokeColor=default;dashed=1;" vertex="1" parent="1">
          <mxGeometry x="450" y="330" width="55.11" height="10" as="geometry" />
        </mxCell>
        <mxCell id="R6-2TD6jUbQ1TESHilik-69" value="网关1" style="rounded=1;whiteSpace=wrap;html=1;" vertex="1" parent="1">
          <mxGeometry x="334.83" y="420" width="50" height="30" as="geometry" />
        </mxCell>
        <mxCell id="R6-2TD6jUbQ1TESHilik-70" value="网关0" style="rounded=1;whiteSpace=wrap;html=1;" vertex="1" parent="1">
          <mxGeometry x="329.83" y="435" width="50" height="30" as="geometry" />
        </mxCell>
        <mxCell id="R6-2TD6jUbQ1TESHilik-71" value="&lt;font style=&quot;font-size: 11px;&quot;&gt;网关集群&lt;/font&gt;" style="text;html=1;align=center;verticalAlign=middle;resizable=0;points=[];autosize=1;strokeColor=none;fillColor=none;" vertex="1" parent="1">
          <mxGeometry x="324.83" y="390" width="70" height="30" as="geometry" />
        </mxCell>
        <mxCell id="R6-2TD6jUbQ1TESHilik-72" value="其他机构" style="rounded=1;whiteSpace=wrap;html=1;strokeColor=default;dashed=1;" vertex="1" parent="1">
          <mxGeometry x="329.83" y="505" width="55.11" height="10" as="geometry" />
        </mxCell>
        <mxCell id="R6-2TD6jUbQ1TESHilik-74" value="" style="endArrow=classic;startArrow=classic;html=1;rounded=0;entryX=1.05;entryY=0.645;entryDx=0;entryDy=0;exitX=0.445;exitY=-0.15;exitDx=0;exitDy=0;exitPerimeter=0;strokeWidth=4;strokeColor=#B3B3B3;entryPerimeter=0;" edge="1" parent="1" source="R6-2TD6jUbQ1TESHilik-71" target="R6-2TD6jUbQ1TESHilik-1">
          <mxGeometry width="50" height="50" relative="1" as="geometry">
            <mxPoint x="320" y="380" as="sourcePoint" />
            <mxPoint x="340" y="350" as="targetPoint" />
          </mxGeometry>
        </mxCell>
        <mxCell id="R6-2TD6jUbQ1TESHilik-75" value="P2P网络" style="ellipse;shape=cloud;whiteSpace=wrap;html=1;fillColor=#d5e8d4;strokeColor=#82b366;" vertex="1" parent="1">
          <mxGeometry x="307.44000000000005" y="290" width="94.77" height="50" as="geometry" />
        </mxCell>
        <mxCell id="R6-2TD6jUbQ1TESHilik-76" value="" style="endArrow=classic;startArrow=classic;html=1;rounded=0;entryX=1;entryY=0.5;entryDx=0;entryDy=0;exitX=-0.025;exitY=0.575;exitDx=0;exitDy=0;strokeWidth=4;strokeColor=#B3B3B3;exitPerimeter=0;" edge="1" parent="1" source="R6-2TD6jUbQ1TESHilik-53" target="R6-2TD6jUbQ1TESHilik-1">
          <mxGeometry width="50" height="50" relative="1" as="geometry">
            <mxPoint x="366" y="396" as="sourcePoint" />
            <mxPoint x="294" y="295" as="targetPoint" />
          </mxGeometry>
        </mxCell>
        <mxCell id="R6-2TD6jUbQ1TESHilik-77" value="" style="endArrow=classic;startArrow=classic;html=1;rounded=0;strokeWidth=4;strokeColor=#B3B3B3;exitX=0.56;exitY=-0.15;exitDx=0;exitDy=0;exitPerimeter=0;" edge="1" parent="1" source="R6-2TD6jUbQ1TESHilik-71">
          <mxGeometry width="50" height="50" relative="1" as="geometry">
            <mxPoint x="370" y="380" as="sourcePoint" />
            <mxPoint x="430" y="280" as="targetPoint" />
          </mxGeometry>
        </mxCell>
        <mxCell id="R6-2TD6jUbQ1TESHilik-78" value="" style="endArrow=none;html=1;rounded=0;entryX=0;entryY=0.5;entryDx=0;entryDy=0;" edge="1" parent="1" target="R6-2TD6jUbQ1TESHilik-27">
          <mxGeometry width="50" height="50" relative="1" as="geometry">
            <mxPoint x="520" y="260" as="sourcePoint" />
            <mxPoint x="670" y="460" as="targetPoint" />
          </mxGeometry>
        </mxCell>
        <mxCell id="R6-2TD6jUbQ1TESHilik-79" value="" style="endArrow=none;html=1;rounded=0;entryX=0;entryY=0.5;entryDx=0;entryDy=0;exitX=1;exitY=0.5;exitDx=0;exitDy=0;" edge="1" parent="1" source="R6-2TD6jUbQ1TESHilik-53" target="R6-2TD6jUbQ1TESHilik-28">
          <mxGeometry width="50" height="50" relative="1" as="geometry">
            <mxPoint x="530" y="270" as="sourcePoint" />
            <mxPoint x="588" y="260" as="targetPoint" />
          </mxGeometry>
        </mxCell>
      </root>
    </mxGraphModel>
  </diagram>
</mxfile>
